Rubik-LightItalic.ufo
<glyph name="I" format="2">
  <advance width="252"/>
  <unicode hex="0049"/>
  <anchor x="62" y="0" name="bottom"/>
  <anchor x="72" y="10" name="ogonek"/>
  <anchor x="210" y="700" name="top"/>
  <anchor x="114" y="700" name="topleft"/>
  <outline>
    <contour>
      <point x="53" y="0" type="curve" smooth="yes"/>
      <point x="73" y="0" type="line" smooth="yes"/>
      <point x="86" y="0"/>
      <point x="96" y="9"/>
      <point x="99" y="22" type="curve" smooth="yes"/>
      <point x="239" y="678" type="line"/>
      <point x="241" y="691"/>
      <point x="234" y="700"/>
      <point x="221" y="700" type="curve" smooth="yes"/>
      <point x="202" y="700" type="line" smooth="yes"/>
      <point x="189" y="700"/>
      <point x="178" y="691"/>
      <point x="176" y="678" type="curve"/>
      <point x="35" y="22" type="line" smooth="yes"/>
      <point x="32" y="9"/>
      <point x="40" y="0"/>
    </contour>
  </outline>
</glyph>
<glyph name="asciitilde" format="2">
  <advance width="563"/>
  <unicode hex="007E"/>
  <guideline x="-150" y="300" angle="0"/>
  <guideline x="-80"/>
  <guideline x="330"/>
  <guideline x="125"/>
  <outline>
    <contour>
      <point x="99" y="252" type="curve" smooth="yes"/>
      <point x="103" y="252"/>
      <point x="107" y="254"/>
      <point x="113" y="256" type="curve" smooth="yes"/>
      <point x="131" y="265"/>
      <point x="157" y="287"/>
      <point x="198" y="287" type="curve" smooth="yes"/>
      <point x="273" y="287"/>
      <point x="302" y="252"/>
      <point x="382" y="252" type="curve" smooth="yes"/>
      <point x="438" y="252"/>
      <point x="498" y="282"/>
      <point x="503" y="307" type="curve" smooth="yes"/>
      <point x="508" y="330" type="line" smooth="yes"/>
      <point x="510" y="340"/>
      <point x="505" y="347"/>
      <point x="495" y="347" type="curve" smooth="yes"/>
      <point x="491" y="347"/>
      <point x="487" y="345"/>
      <point x="481" y="343" type="curve" smooth="yes"/>
      <point x="463" y="334"/>
      <point x="437" y="312"/>
      <point x="396" y="312" type="curve" smooth="yes"/>
      <point x="324" y="312"/>
      <point x="296" y="347"/>
      <point x="212" y="347" type="curve" smooth="yes"/>
      <point x="156" y="347"/>
      <point x="96" y="317"/>
      <point x="90" y="292" type="curve" smooth="yes"/>
      <point x="85" y="269" type="line" smooth="yes"/>
      <point x="83" y="259"/>
      <point x="89" y="252"/>
    </contour>
  </outline>
</glyph>
<glyph name="exclamdown" format="2">
  <advance width="217"/>
  <unicode hex="00A1"/>
  <guideline x="-150" y="352" angle="0"/>
  <outline>
    <contour>
      <point x="310" y="376" type="curve" smooth="yes"/>
      <point x="293" y="376" type="line" smooth="yes"/>
      <point x="280" y="376"/>
      <point x="269" y="367"/>
      <point x="266" y="354" type="curve" smooth="yes"/>
      <point x="157" y="-159" type="line" smooth="yes"/>
      <point x="155" y="-172"/>
      <point x="162" y="-181"/>
      <point x="175" y="-181" type="curve" smooth="yes"/>
      <point x="192" y="-181" type="line" smooth="yes"/>
      <point x="205" y="-181"/>
      <point x="216" y="-172"/>
      <point x="218" y="-159" type="curve" smooth="yes"/>
      <point x="327" y="354" type="line" smooth="yes"/>
      <point x="330" y="367"/>
      <point x="323" y="376"/>
    </contour>
    <contour>
      <point x="351" y="519" type="curve" smooth="yes"/>
      <point x="313" y="519" type="line" smooth="yes"/>
      <point x="300" y="519"/>
      <point x="289" y="510"/>
      <point x="286" y="497" type="curve" smooth="yes"/>
      <point x="278" y="459" type="line" smooth="yes"/>
      <point x="275" y="446"/>
      <point x="283" y="436"/>
      <point x="296" y="436" type="curve" smooth="yes"/>
      <point x="334" y="436" type="line" smooth="yes"/>
      <point x="347" y="436"/>
      <point x="358" y="446"/>
      <point x="361" y="459" type="curve" smooth="yes"/>
      <point x="369" y="497" type="line" smooth="yes"/>
      <point x="372" y="510"/>
      <point x="364" y="519"/>
    </contour>
  </outline>
</glyph>
<glyph name="sterling" format="2">
  <advance width="658"/>
  <unicode hex="00A3"/>
  <guideline x="-80"/>
  <guideline x="68"/>
  <outline>
    <contour>
      <point x="399" y="-5" type="curve" smooth="yes"/>
      <point x="485" y="-5"/>
      <point x="558" y="49"/>
      <point x="581" y="149" type="curve" smooth="yes"/>
      <point x="583" y="159"/>
      <point x="578" y="168"/>
      <point x="566" y="168" type="curve" smooth="yes"/>
      <point x="541" y="168" type="line" smooth="yes"/>
      <point x="531" y="168"/>
      <point x="520" y="156"/>
      <point x="518" y="149" type="curve" smooth="yes"/>
      <point x="499" y="96"/>
      <point x="475" y="55"/>
      <point x="412" y="55" type="curve" smooth="yes"/>
      <point x="330" y="55"/>
      <point x="315" y="151"/>
      <point x="221" y="169" type="curve"/>
      <point x="230" y="221"/>
      <point x="232" y="267"/>
      <point x="235" y="315" type="curve"/>
      <point x="437" y="315" type="line" smooth="yes"/>
      <point x="450" y="315"/>
      <point x="461" y="324"/>
      <point x="464" y="337" type="curve" smooth="yes"/>
      <point x="467" y="353" type="line" smooth="yes"/>
      <point x="470" y="366"/>
      <point x="463" y="375"/>
      <point x="450" y="375" type="curve" smooth="yes"/>
      <point x="239" y="375" type="line"/>
      <point x="241" y="400"/>
      <point x="246" y="426"/>
      <point x="252" y="455" type="curve" smooth="yes"/>
      <point x="276" y="569"/>
      <point x="348" y="651"/>
      <point x="455" y="651" type="curve" smooth="yes"/>
      <point x="552" y="651"/>
      <point x="591" y="593"/>
      <point x="587" y="494" type="curve" smooth="yes"/>
      <point x="587" y="482"/>
      <point x="596" y="473"/>
      <point x="606" y="473" type="curve" smooth="yes"/>
      <point x="624" y="473" type="line" smooth="yes"/>
      <point x="636" y="473"/>
      <point x="647" y="483"/>
      <point x="649" y="495" type="curve" smooth="yes"/>
      <point x="670" y="607"/>
      <point x="618" y="711"/>
      <point x="468" y="711" type="curve" smooth="yes"/>
      <point x="311" y="711"/>
      <point x="218" y="590"/>
      <point x="189" y="456" type="curve" smooth="yes"/>
      <point x="183" y="427"/>
      <point x="178" y="400"/>
      <point x="175" y="375" type="curve"/>
      <point x="105" y="375" type="line" smooth="yes"/>
      <point x="92" y="375"/>
      <point x="81" y="366"/>
      <point x="78" y="353" type="curve" smooth="yes"/>
      <point x="75" y="337" type="line" smooth="yes"/>
      <point x="72" y="324"/>
      <point x="79" y="315"/>
      <point x="92" y="315" type="curve" smooth="yes"/>
      <point x="169" y="315" type="line"/>
      <point x="166" y="261"/>
      <point x="165" y="216"/>
      <point x="158" y="171" type="curve"/>
      <point x="91" y="160"/>
      <point x="30" y="114"/>
      <point x="7" y="19" type="curve" smooth="yes"/>
      <point x="5" y="9"/>
      <point x="10" y="0"/>
      <point x="22" y="0" type="curve" smooth="yes"/>
      <point x="45" y="0" type="line" smooth="yes"/>
      <point x="63" y="0"/>
      <point x="68" y="14"/>
      <point x="71" y="21" type="curve" smooth="yes"/>
      <point x="90" y="74"/>
      <point x="112" y="113"/>
      <point x="175" y="113" type="curve" smooth="yes"/>
      <point x="262" y="113"/>
      <point x="271" y="-5"/>
    </contour>
  </outline>
</glyph>
<glyph name="yen" format="2">
  <advance width="586"/>
  <unicode hex="00A5"/>
  <guideline x="322"/>
  <outline>
    <contour>
      <point x="209" y="0" type="curve" smooth="yes"/>
      <point x="228" y="0" type="line" smooth="yes"/>
      <point x="242" y="0"/>
      <point x="253" y="9"/>
      <point x="255" y="22" type="curve" smooth="yes"/>
      <point x="313" y="294" type="line"/>
      <point x="613" y="667" type="line" smooth="yes"/>
      <point x="616" y="671"/>
      <point x="619" y="675"/>
      <point x="620" y="680" type="curve" smooth="yes"/>
      <point x="622" y="691"/>
      <point x="615" y="700"/>
      <point x="604" y="700" type="curve" smooth="yes"/>
      <point x="578" y="700" type="line" smooth="yes"/>
      <point x="569" y="700"/>
      <point x="560" y="695"/>
      <point x="552" y="685" type="curve" smooth="yes"/>
      <point x="291" y="361" type="line"/>
      <point x="168" y="685" type="line" smooth="yes"/>
      <point x="164" y="695"/>
      <point x="157" y="700"/>
      <point x="148" y="700" type="curve" smooth="yes"/>
      <point x="129" y="700" type="line" smooth="yes"/>
      <point x="115" y="700"/>
      <point x="104" y="693"/>
      <point x="104" y="680" type="curve" smooth="yes"/>
      <point x="104" y="676"/>
      <point x="105" y="672"/>
      <point x="107" y="667" type="curve" smooth="yes"/>
      <point x="249" y="294" type="line"/>
      <point x="191" y="22" type="line" smooth="yes"/>
      <point x="189" y="9"/>
      <point x="196" y="0"/>
    </contour>
    <contour>
      <point x="65" y="123" type="curve" smooth="yes"/>
      <point x="425" y="123" type="line" smooth="yes"/>
      <point x="438" y="123"/>
      <point x="449" y="132"/>
      <point x="451" y="145" type="curve" smooth="yes"/>
      <point x="455" y="161" type="line" smooth="yes"/>
      <point x="458" y="174"/>
      <point x="451" y="183"/>
      <point x="438" y="183" type="curve" smooth="yes"/>
      <point x="78" y="183" type="line" smooth="yes"/>
      <point x="65" y="183"/>
      <point x="54" y="174"/>
      <point x="51" y="161" type="curve" smooth="yes"/>
      <point x="47" y="145" type="line" smooth="yes"/>
      <point x="45" y="132"/>
      <point x="52" y="123"/>
    </contour>
    <contour>
      <point x="90" y="243" type="curve" smooth="yes"/>
      <point x="450" y="243" type="line" smooth="yes"/>
      <point x="463" y="243"/>
      <point x="474" y="252"/>
      <point x="477" y="265" type="curve" smooth="yes"/>
      <point x="480" y="281" type="line" smooth="yes"/>
      <point x="483" y="294"/>
      <point x="476" y="303"/>
      <point x="463" y="303" type="curve" smooth="yes"/>
      <point x="103" y="303" type="line" smooth="yes"/>
      <point x="90" y="303"/>
      <point x="79" y="294"/>
      <point x="76" y="281" type="curve" smooth="yes"/>
      <point x="73" y="265" type="line" smooth="yes"/>
      <point x="70" y="252"/>
      <point x="77" y="243"/>
    </contour>
  </outline>
</glyph>
<glyph name="gcommaaccent" format="2">
  <advance width="579"/>
  <unicode hex="0123"/>
  <outline>
    <contour>
      <point x="409" y="755" type="curve" smooth="yes"/>
      <point x="391" y="755" type="line" smooth="yes"/>
      <point x="376" y="755"/>
      <point x="370" y="747"/>
      <point x="361" y="734" type="curve"/>
      <point x="299" y="629" type="line" smooth="yes"/>
      <point x="294" y="622"/>
      <point x="292" y="616"/>
      <point x="291" y="611" type="curve" smooth="yes"/>
      <point x="289" y="603"/>
      <point x="293" y="595"/>
      <point x="302" y="595" type="curve" smooth="yes"/>
      <point x="347" y="595" type="line" smooth="yes"/>
      <point x="363" y="595"/>
      <point x="373" y="606"/>
      <point x="378" y="622" type="curve" smooth="yes"/>
      <point x="419" y="734" type="line" smooth="yes"/>
      <point x="424" y="746"/>
      <point x="420" y="755"/>
    </contour>
    <component base="g"/>
  </outline>
</glyph>
<glyph name="kgreenlandic" format="2">
  <advance width="488"/>
  <unicode hex="0138"/>
  <guideline x="-150" y="520" angle="0"/>
  <guideline x="-150" y="260" angle="0"/>
  <outline>
    <contour>
      <point x="54" y="0" type="curve" smooth="yes"/>
      <point x="71" y="0" type="line" smooth="yes"/>
      <point x="84" y="0"/>
      <point x="95" y="9"/>
      <point x="98" y="22" type="curve" smooth="yes"/>
      <point x="138" y="212" type="line"/>
      <point x="346" y="17" type="line"/>
      <point x="360" y="4"/>
      <point x="364" y="0"/>
      <point x="384" y="0" type="curve" smooth="yes"/>
      <point x="402" y="0" type="line" smooth="yes"/>
      <point x="414" y="0"/>
      <point x="424" y="8"/>
      <point x="426" y="20" type="curve" smooth="yes"/>
      <point x="428" y="25"/>
      <point x="425" y="33"/>
      <point x="418" y="40" type="curve" smooth="yes"/>
      <point x="184" y="260" type="line"/>
      <point x="491" y="480" type="line"/>
      <point x="503" y="487"/>
      <point x="507" y="495"/>
      <point x="508" y="500" type="curve" smooth="yes"/>
      <point x="511" y="512"/>
      <point x="505" y="520"/>
      <point x="493" y="520" type="curve" smooth="yes"/>
      <point x="477" y="520" type="line" smooth="yes"/>
      <point x="457" y="520"/>
      <point x="453" y="517"/>
      <point x="431" y="503" type="curve"/>
      <point x="159" y="308" type="line"/>
      <point x="199" y="498" type="line" smooth="yes"/>
      <point x="202" y="511"/>
      <point x="195" y="520"/>
      <point x="182" y="520" type="curve" smooth="yes"/>
      <point x="165" y="520" type="line" smooth="yes"/>
      <point x="152" y="520"/>
      <point x="141" y="511"/>
      <point x="138" y="498" type="curve" smooth="yes"/>
      <point x="37" y="22" type="line" smooth="yes"/>
      <point x="34" y="9"/>
      <point x="41" y="0"/>
    </contour>
  </outline>
</glyph>
<glyph name="hungarumlaut" format="2">
  <advance width="329"/>
  <unicode hex="02DD"/>
  <outline>
    <contour>
      <point x="187" y="595" type="curve" smooth="yes"/>
      <point x="197" y="595" type="line" smooth="yes"/>
      <point x="210" y="595"/>
      <point x="220" y="600"/>
      <point x="230" y="609" type="curve" smooth="yes"/>
      <point x="321" y="695" type="line" smooth="yes"/>
      <point x="326" y="700"/>
      <point x="328" y="706"/>
      <point x="328" y="711" type="curve" smooth="yes"/>
      <point x="328" y="719"/>
      <point x="323" y="725"/>
      <point x="312" y="725" type="curve" smooth="yes"/>
      <point x="277" y="725" type="line" smooth="yes"/>
      <point x="256" y="725"/>
      <point x="244" y="719"/>
      <point x="236" y="706" type="curve" smooth="yes"/>
      <point x="178" y="619" type="line" smooth="yes"/>
      <point x="175" y="615"/>
      <point x="173" y="610"/>
      <point x="173" y="606" type="curve" smooth="yes"/>
      <point x="173" y="600"/>
      <point x="177" y="595"/>
    </contour>
    <contour>
      <point x="44" y="595" type="curve" smooth="yes"/>
      <point x="54" y="595" type="line" smooth="yes"/>
      <point x="67" y="595"/>
      <point x="77" y="600"/>
      <point x="87" y="609" type="curve" smooth="yes"/>
      <point x="178" y="695" type="line" smooth="yes"/>
      <point x="183" y="700"/>
      <point x="185" y="706"/>
      <point x="185" y="711" type="curve" smooth="yes"/>
      <point x="185" y="719"/>
      <point x="180" y="725"/>
      <point x="169" y="725" type="curve" smooth="yes"/>
      <point x="134" y="725" type="line" smooth="yes"/>
      <point x="113" y="725"/>
      <point x="101" y="719"/>
      <point x="93" y="706" type="curve" smooth="yes"/>
      <point x="35" y="619" type="line" smooth="yes"/>
      <point x="32" y="615"/>
      <point x="30" y="610"/>
      <point x="30" y="606" type="curve" smooth="yes"/>
      <point x="30" y="600"/>
      <point x="34" y="595"/>
    </contour>
  </outline>
</glyph>
<glyph name="Lje-cy" format="2">
  <advance width="949"/>
  <unicode hex="0409"/>
  <guideline x="527" y="212" angle="77.8923"/>
  <outline>
    <contour>
      <point x="-31" y="1" type="curve" smooth="yes"/>
      <point x="104" y="11"/>
      <point x="201" y="128"/>
      <point x="269" y="449" type="curve" smooth="yes"/>
      <point x="310" y="640" type="line"/>
      <point x="555" y="640" type="line"/>
      <point x="423" y="22" type="line" smooth="yes"/>
      <point x="421" y="9"/>
      <point x="428" y="0"/>
      <point x="441" y="0" type="curve" smooth="yes"/>
      <point x="625" y="0" type="line" smooth="yes"/>
      <point x="771" y="0"/>
      <point x="858" y="111"/>
      <point x="880" y="214" type="curve" smooth="yes"/>
      <point x="907" y="340"/>
      <point x="858" y="418"/>
      <point x="714" y="418" type="curve" smooth="yes"/>
      <point x="571" y="418" type="line"/>
      <point x="626" y="678" type="line" smooth="yes"/>
      <point x="629" y="691"/>
      <point x="621" y="700"/>
      <point x="608" y="700" type="curve" smooth="yes"/>
      <point x="281" y="700" type="line" smooth="yes"/>
      <point x="268" y="700"/>
      <point x="257" y="691"/>
      <point x="255" y="678" type="curve" smooth="yes"/>
      <point x="208" y="457" type="line" smooth="yes"/>
      <point x="146" y="168"/>
      <point x="68" y="76"/>
      <point x="-21" y="64" type="curve" smooth="yes"/>
      <point x="-33" y="63"/>
      <point x="-43" y="54"/>
      <point x="-45" y="42" type="curve" smooth="yes"/>
      <point x="-49" y="24" type="line" smooth="yes"/>
      <point x="-52" y="11"/>
      <point x="-44" y="0"/>
    </contour>
    <contour>
      <point x="494" y="60" type="line"/>
      <point x="559" y="363" type="line"/>
      <point x="692" y="363" type="line" smooth="yes"/>
      <point x="799" y="363"/>
      <point x="838" y="314"/>
      <point x="818" y="217" type="curve" smooth="yes"/>
      <point x="798" y="122"/>
      <point x="726" y="60"/>
      <point x="627" y="60" type="curve" smooth="yes"/>
    </contour>
  </outline>
</glyph>
<glyph name="Be-cy" format="2">
  <advance width="632"/>
  <unicode hex="0411"/>
  <guideline x="-15" y="280" angle="0"/>
  <guideline x="21" y="447" angle="0"/>
  <guideline x="442"/>
  <outline>
    <contour>
      <point x="42" y="0" type="curve" smooth="yes"/>
      <point x="306" y="0" type="line" smooth="yes"/>
      <point x="452" y="0"/>
      <point x="540" y="115"/>
      <point x="559" y="204" type="curve" smooth="yes"/>
      <point x="583" y="314"/>
      <point x="534" y="398"/>
      <point x="390" y="398" type="curve" smooth="yes"/>
      <point x="167" y="398" type="line"/>
      <point x="219" y="640" type="line"/>
      <point x="594" y="640" type="line" smooth="yes"/>
      <point x="608" y="640"/>
      <point x="619" y="649"/>
      <point x="621" y="662" type="curve" smooth="yes"/>
      <point x="625" y="677" type="line" smooth="yes"/>
      <point x="627" y="691"/>
      <point x="620" y="700"/>
      <point x="606" y="700" type="curve" smooth="yes"/>
      <point x="190" y="700" type="line" smooth="yes"/>
      <point x="177" y="700"/>
      <point x="166" y="691"/>
      <point x="164" y="677" type="curve" smooth="yes"/>
      <point x="24" y="22" type="line" smooth="yes"/>
      <point x="22" y="9"/>
      <point x="29" y="0"/>
    </contour>
    <contour>
      <point x="95" y="60" type="line"/>
      <point x="156" y="343" type="line"/>
      <point x="369" y="343" type="line" smooth="yes"/>
      <point x="476" y="343"/>
      <point x="514" y="288"/>
      <point x="497" y="207" type="curve" smooth="yes"/>
      <point x="480" y="127"/>
      <point x="407" y="60"/>
      <point x="308" y="60" type="curve" smooth="yes"/>
    </contour>
  </outline>
</glyph>
<glyph name="Zhe-cy" format="2">
  <advance width="1015"/>
  <unicode hex="0416"/>
  <anchor x="831" y="0" name="bottomright"/>
  <anchor x="591" y="700" name="top"/>
  <outline>
    <contour>
      <point x="997" y="700" type="curve" smooth="yes"/>
      <point x="975" y="700" type="line" smooth="yes"/>
      <point x="959" y="700"/>
      <point x="948" y="695"/>
      <point x="939" y="685" type="curve"/>
      <point x="689" y="385" type="line"/>
      <point x="555" y="385" type="line"/>
      <point x="618" y="678" type="line"/>
      <point x="620" y="691"/>
      <point x="613" y="700"/>
      <point x="600" y="700" type="curve" smooth="yes"/>
      <point x="581" y="700" type="line" smooth="yes"/>
      <point x="568" y="700"/>
      <point x="557" y="691"/>
      <point x="555" y="678" type="curve"/>
      <point x="492" y="385" type="line"/>
      <point x="362" y="385" type="line"/>
      <point x="235" y="685" type="line" smooth="yes"/>
      <point x="231" y="695"/>
      <point x="221" y="700"/>
      <point x="205" y="700" type="curve" smooth="yes"/>
      <point x="194" y="700" type="line" smooth="yes"/>
      <point x="179" y="700"/>
      <point x="172" y="691"/>
      <point x="170" y="680" type="curve"/>
      <point x="169" y="676"/>
      <point x="170" y="672"/>
      <point x="172" y="667" type="curve" smooth="yes"/>
      <point x="302" y="360" type="line"/>
      <point x="18" y="35" type="line"/>
      <point x="15" y="32"/>
      <point x="15" y="28"/>
      <point x="14" y="24" type="curve" smooth="yes"/>
      <point x="11" y="11"/>
      <point x="19" y="0"/>
      <point x="32" y="0" type="curve" smooth="yes"/>
      <point x="57" y="0" type="line" smooth="yes"/>
      <point x="69" y="0"/>
      <point x="75" y="5"/>
      <point x="82" y="13" type="curve" smooth="yes"/>
      <point x="356" y="325" type="line"/>
      <point x="480" y="325" type="line"/>
      <point x="415" y="22" type="line"/>
      <point x="413" y="9"/>
      <point x="420" y="0"/>
      <point x="433" y="0" type="curve" smooth="yes"/>
      <point x="452" y="0" type="line" smooth="yes"/>
      <point x="465" y="0"/>
      <point x="476" y="9"/>
      <point x="478" y="21" type="curve"/>
      <point x="543" y="325" type="line"/>
      <point x="689" y="325" type="line"/>
      <point x="840" y="13" type="line" smooth="yes"/>
      <point x="844" y="5"/>
      <point x="849" y="0"/>
      <point x="861" y="0" type="curve" smooth="yes"/>
      <point x="873" y="0" type="line" smooth="yes"/>
      <point x="886" y="0"/>
      <point x="898" y="11"/>
      <point x="901" y="24" type="curve" smooth="yes"/>
      <point x="902" y="28"/>
      <point x="902" y="32"/>
      <point x="901" y="35" type="curve"/>
      <point x="745" y="360" type="line"/>
      <point x="1005" y="667" type="line" smooth="yes"/>
      <point x="1009" y="672"/>
      <point x="1012" y="676"/>
      <point x="1013" y="680" type="curve" smooth="yes"/>
      <point x="1016" y="691"/>
      <point x="1012" y="700"/>
    </contour>
  </outline>
</glyph>
<glyph name="Ze-cy" format="2">
  <advance width="584"/>
  <unicode hex="0417"/>
  <guideline x="-86" y="-10" angle="0"/>
  <guideline x="-45" y="180" angle="0"/>
  <guideline x="-22"/>
  <guideline x="226"/>
  <anchor x="220" y="0" name="bottom"/>
  <anchor x="362" y="700" name="top"/>
  <outline>
    <contour>
      <point x="217" y="-10" type="curve" smooth="yes"/>
      <point x="372" y="-10"/>
      <point x="479" y="73"/>
      <point x="505" y="193" type="curve" smooth="yes"/>
      <point x="521" y="271"/>
      <point x="499" y="334"/>
      <point x="437" y="368" type="curve"/>
      <point x="502" y="403"/>
      <point x="537" y="463"/>
      <point x="551" y="527" type="curve" smooth="yes"/>
      <point x="570" y="618"/>
      <point x="510" y="710"/>
      <point x="355" y="710" type="curve" smooth="yes"/>
      <point x="213" y="710"/>
      <point x="122" y="647"/>
      <point x="90" y="540" type="curve" smooth="yes"/>
      <point x="87" y="528"/>
      <point x="95" y="520"/>
      <point x="107" y="520" type="curve" smooth="yes"/>
      <point x="127" y="520" type="line" smooth="yes"/>
      <point x="138" y="520"/>
      <point x="147" y="525"/>
      <point x="154" y="541" type="curve" smooth="yes"/>
      <point x="186" y="619"/>
      <point x="261" y="650"/>
      <point x="352" y="650" type="curve" smooth="yes"/>
      <point x="439" y="650"/>
      <point x="504" y="603"/>
      <point x="488" y="527" type="curve" smooth="yes"/>
      <point x="468" y="436"/>
      <point x="395" y="396"/>
      <point x="302" y="396" type="curve" smooth="yes"/>
      <point x="236" y="396" type="line" smooth="yes"/>
      <point x="223" y="396"/>
      <point x="212" y="387"/>
      <point x="209" y="373" type="curve" smooth="yes"/>
      <point x="206" y="358" type="line" smooth="yes"/>
      <point x="203" y="345"/>
      <point x="210" y="336"/>
      <point x="223" y="336" type="curve" smooth="yes"/>
      <point x="294" y="336" type="line" smooth="yes"/>
      <point x="402" y="336"/>
      <point x="461" y="283"/>
      <point x="442" y="193" type="curve" smooth="yes"/>
      <point x="422" y="103"/>
      <point x="321" y="50"/>
      <point x="220" y="50" type="curve" smooth="yes"/>
      <point x="119" y="50"/>
      <point x="66" y="94"/>
      <point x="63" y="157" type="curve" smooth="yes"/>
      <point x="62" y="177"/>
      <point x="52" y="180"/>
      <point x="41" y="180" type="curve" smooth="yes"/>
      <point x="25" y="180" type="line" smooth="yes"/>
      <point x="13" y="180"/>
      <point x="1" y="173"/>
      <point x="0" y="161" type="curve" smooth="yes"/>
      <point x="-12" y="61"/>
      <point x="72" y="-10"/>
    </contour>
  </outline>
</glyph>
<glyph name="Ka-cy" format="2">
  <advance width="625"/>
  <unicode hex="041A"/>
  <guideline x="592" y="488" angle="90"/>
  <anchor x="436" y="0" name="bottomright"/>
  <anchor x="251" y="358" name="center"/>
  <anchor x="383" y="700" name="top"/>
  <outline>
    <contour>
      <point x="617" y="700" type="curve" smooth="yes"/>
      <point x="595" y="700" type="line" smooth="yes"/>
      <point x="579" y="700"/>
      <point x="568" y="695"/>
      <point x="559" y="685" type="curve"/>
      <point x="309" y="385" type="line"/>
      <point x="175" y="385" type="line"/>
      <point x="238" y="677" type="line"/>
      <point x="240" y="691"/>
      <point x="233" y="700"/>
      <point x="219" y="700" type="curve" smooth="yes"/>
      <point x="201" y="700" type="line" smooth="yes"/>
      <point x="188" y="700"/>
      <point x="177" y="691"/>
      <point x="175" y="677" type="curve"/>
      <point x="35" y="22" type="line"/>
      <point x="33" y="9"/>
      <point x="40" y="0"/>
      <point x="53" y="0" type="curve" smooth="yes"/>
      <point x="71" y="0" type="line" smooth="yes"/>
      <point x="85" y="0"/>
      <point x="96" y="9"/>
      <point x="98" y="22" type="curve"/>
      <point x="163" y="325" type="line"/>
      <point x="307" y="325" type="line"/>
      <point x="450" y="13" type="line" smooth="yes"/>
      <point x="454" y="5"/>
      <point x="459" y="0"/>
      <point x="471" y="0" type="curve" smooth="yes"/>
      <point x="483" y="0" type="line" smooth="yes"/>
      <point x="496" y="0"/>
      <point x="508" y="11"/>
      <point x="511" y="24" type="curve" smooth="yes"/>
      <point x="512" y="28"/>
      <point x="512" y="32"/>
      <point x="511" y="35" type="curve"/>
      <point x="365" y="360" type="line"/>
      <point x="625" y="667" type="line" smooth="yes"/>
      <point x="629" y="672"/>
      <point x="632" y="676"/>
      <point x="633" y="680" type="curve"/>
      <point x="635" y="691"/>
      <point x="632" y="700"/>
    </contour>
  </outline>
</glyph>
<glyph name="ka-cy" format="2">
  <advance width="496"/>
  <unicode hex="043A"/>
  <guideline y="260"/>
  <guideline x="-912"/>
  <guideline x="15"/>
  <anchor x="350" y="0" name="bottomright"/>
  <anchor x="193" y="260" name="center"/>
  <anchor x="305" y="520" name="top"/>
  <outline>
    <contour>
      <point x="48" y="0" type="curve" smooth="yes"/>
      <point x="65" y="0" type="line" smooth="yes"/>
      <point x="78" y="0"/>
      <point x="89" y="9"/>
      <point x="91" y="22" type="curve" smooth="yes"/>
      <point x="137" y="235" type="line"/>
      <point x="246" y="235" type="line"/>
      <point x="356" y="14" type="line"/>
      <point x="361" y="5"/>
      <point x="367" y="0"/>
      <point x="379" y="0" type="curve" smooth="yes"/>
      <point x="397" y="0" type="line" smooth="yes"/>
      <point x="409" y="0"/>
      <point x="417" y="5"/>
      <point x="419" y="14" type="curve" smooth="yes"/>
      <point x="420" y="18"/>
      <point x="419" y="22"/>
      <point x="416" y="27" type="curve" smooth="yes"/>
      <point x="293" y="272" type="line"/>
      <point x="497" y="494" type="line" smooth="yes"/>
      <point x="501" y="499"/>
      <point x="504" y="503"/>
      <point x="504" y="506" type="curve" smooth="yes"/>
      <point x="504" y="515"/>
      <point x="499" y="520"/>
      <point x="487" y="520" type="curve" smooth="yes"/>
      <point x="458" y="520" type="line" smooth="yes"/>
      <point x="446" y="520"/>
      <point x="438" y="515"/>
      <point x="429" y="505" type="curve" smooth="yes"/>
      <point x="242" y="295" type="line"/>
      <point x="149" y="295" type="line"/>
      <point x="193" y="498" type="line" smooth="yes"/>
      <point x="195" y="511"/>
      <point x="188" y="520"/>
      <point x="175" y="520" type="curve" smooth="yes"/>
      <point x="158" y="520" type="line" smooth="yes"/>
      <point x="145" y="520"/>
      <point x="134" y="511"/>
      <point x="132" y="498" type="curve" smooth="yes"/>
      <point x="30" y="22" type="line" smooth="yes"/>
      <point x="28" y="9"/>
      <point x="35" y="0"/>
    </contour>
  </outline>
</glyph>
<glyph name="el-cy" format="2">
  <advance width="561"/>
  <unicode hex="043B"/>
  <guideline x="-9"/>
  <outline>
    <contour>
      <point x="-7" y="0" type="curve" smooth="yes"/>
      <point x="94" y="0"/>
      <point x="179" y="108"/>
      <point x="234" y="368" type="curve" smooth="yes"/>
      <point x="254" y="462" type="line"/>
      <point x="462" y="462" type="line"/>
      <point x="368" y="22" type="line" smooth="yes"/>
      <point x="366" y="9"/>
      <point x="373" y="0"/>
      <point x="386" y="0" type="curve" smooth="yes"/>
      <point x="403" y="0" type="line" smooth="yes"/>
      <point x="416" y="0"/>
      <point x="427" y="9"/>
      <point x="429" y="22" type="curve" smooth="yes"/>
      <point x="531" y="498" type="line" smooth="yes"/>
      <point x="533" y="511"/>
      <point x="526" y="520"/>
      <point x="513" y="520" type="curve" smooth="yes"/>
      <point x="227" y="520" type="line" smooth="yes"/>
      <point x="214" y="520"/>
      <point x="203" y="511"/>
      <point x="201" y="498" type="curve" smooth="yes"/>
      <point x="174" y="375" type="line" smooth="yes"/>
      <point x="125" y="142"/>
      <point x="66" y="60"/>
      <point x="2" y="60" type="curve" smooth="yes"/>
      <point x="-10" y="60"/>
      <point x="-19" y="51"/>
      <point x="-22" y="39" type="curve" smooth="yes"/>
      <point x="-25" y="23" type="line" smooth="yes"/>
      <point x="-28" y="10"/>
      <point x="-20" y="0"/>
    </contour>
  </outline>
</glyph>
<glyph name="te-cy" format="2">
  <advance width="497"/>
  <unicode hex="0442"/>
  <guideline x="-25"/>
  <guideline x="446"/>
  <outline>
    <contour>
      <point x="185" y="0" type="curve"/>
      <point x="202" y="0" type="line" smooth="yes"/>
      <point x="215" y="0"/>
      <point x="226" y="9"/>
      <point x="228" y="22" type="curve" smooth="yes"/>
      <point x="322" y="462" type="line"/>
      <point x="505" y="462" type="line" smooth="yes"/>
      <point x="518" y="462"/>
      <point x="529" y="471"/>
      <point x="532" y="484" type="curve" smooth="yes"/>
      <point x="535" y="498" type="line" smooth="yes"/>
      <point x="537" y="511"/>
      <point x="530" y="520"/>
      <point x="517" y="520" type="curve" smooth="yes"/>
      <point x="90" y="520" type="line" smooth="yes"/>
      <point x="77" y="520"/>
      <point x="66" y="511"/>
      <point x="64" y="498" type="curve" smooth="yes"/>
      <point x="61" y="484" type="line" smooth="yes"/>
      <point x="58" y="471"/>
      <point x="65" y="462"/>
      <point x="78" y="462" type="curve" smooth="yes"/>
      <point x="261" y="462" type="line"/>
      <point x="167" y="22" type="line" smooth="yes"/>
      <point x="165" y="9"/>
      <point x="172" y="0"/>
    </contour>
  </outline>
</glyph>
<glyph name="yeru-cy" format="2">
  <advance width="659"/>
  <unicode hex="044B"/>
  <anchor x="395" y="520" name="top"/>
  <outline>
    <contour>
      <point x="48" y="0" type="curve" smooth="yes"/>
      <point x="182" y="0" type="line" smooth="yes"/>
      <point x="322" y="0"/>
      <point x="397" y="51"/>
      <point x="422" y="169" type="curve" smooth="yes"/>
      <point x="443" y="267"/>
      <point x="396" y="342"/>
      <point x="270" y="341" type="curve" smooth="yes"/>
      <point x="159" y="341" type="line"/>
      <point x="193" y="498" type="line"/>
      <point x="195" y="511"/>
      <point x="188" y="520"/>
      <point x="175" y="520" type="curve" smooth="yes"/>
      <point x="158" y="520" type="line" smooth="yes"/>
      <point x="145" y="520"/>
      <point x="134" y="511"/>
      <point x="132" y="498" type="curve" smooth="yes"/>
      <point x="30" y="22" type="line" smooth="yes"/>
      <point x="28" y="9"/>
      <point x="35" y="0"/>
    </contour>
    <contour>
      <point x="99" y="58" type="line"/>
      <point x="148" y="288" type="line"/>
      <point x="252" y="288" type="line" smooth="yes"/>
      <point x="348" y="288"/>
      <point x="378" y="249"/>
      <point x="361" y="169" type="curve" smooth="yes"/>
      <point x="343" y="86"/>
      <point x="296" y="58"/>
      <point x="203" y="58" type="curve" smooth="yes"/>
    </contour>
    <contour>
      <point x="484" y="0" type="curve" smooth="yes"/>
      <point x="501" y="0" type="line" smooth="yes"/>
      <point x="514" y="0"/>
      <point x="525" y="9"/>
      <point x="527" y="22" type="curve" smooth="yes"/>
      <point x="629" y="498" type="line" smooth="yes"/>
      <point x="631" y="511"/>
      <point x="624" y="520"/>
      <point x="611" y="520" type="curve" smooth="yes"/>
      <point x="594" y="520" type="line" smooth="yes"/>
      <point x="581" y="520"/>
      <point x="570" y="511"/>
      <point x="568" y="498" type="curve" smooth="yes"/>
      <point x="466" y="22" type="line" smooth="yes"/>
      <point x="464" y="9"/>
      <point x="471" y="0"/>
    </contour>
  </outline>
</glyph>
<glyph name="iu-cy" format="2">
  <advance width="771"/>
  <unicode hex="044E"/>
  <outline>
    <contour>
      <point x="272" y="237" type="line"/>
      <point x="284" y="295" type="line"/>
      <point x="149" y="295" type="line"/>
      <point x="193" y="498" type="line" smooth="yes"/>
      <point x="195" y="511"/>
      <point x="188" y="520"/>
      <point x="175" y="520" type="curve" smooth="yes"/>
      <point x="158" y="520" type="line" smooth="yes"/>
      <point x="145" y="520"/>
      <point x="134" y="511"/>
      <point x="132" y="498" type="curve" smooth="yes"/>
      <point x="30" y="22" type="line" smooth="yes"/>
      <point x="28" y="9"/>
      <point x="35" y="0"/>
      <point x="48" y="0" type="curve" smooth="yes"/>
      <point x="65" y="0" type="line" smooth="yes"/>
      <point x="78" y="0"/>
      <point x="89" y="9"/>
      <point x="91" y="22" type="curve" smooth="yes"/>
      <point x="137" y="237" type="line"/>
    </contour>
    <contour>
      <point x="427" y="-10" type="curve" smooth="yes"/>
      <point x="571" y="-10"/>
      <point x="666" y="89"/>
      <point x="697" y="218" type="curve" smooth="yes"/>
      <point x="702" y="238"/>
      <point x="712" y="282"/>
      <point x="715" y="302" type="curve" smooth="yes"/>
      <point x="738" y="431"/>
      <point x="685" y="530"/>
      <point x="541" y="530" type="curve" smooth="yes"/>
      <point x="397" y="530"/>
      <point x="302" y="431"/>
      <point x="271" y="302" type="curve" smooth="yes"/>
      <point x="266" y="282"/>
      <point x="256" y="238"/>
      <point x="253" y="218" type="curve" smooth="yes"/>
      <point x="230" y="89"/>
      <point x="283" y="-10"/>
    </contour>
    <contour>
      <point x="439" y="48" type="curve" smooth="yes"/>
      <point x="346" y="48"/>
      <point x="295" y="109"/>
      <point x="315" y="223" type="curve" smooth="yes"/>
      <point x="318" y="243"/>
      <point x="326" y="277"/>
      <point x="331" y="297" type="curve" smooth="yes"/>
      <point x="359" y="411"/>
      <point x="436" y="472"/>
      <point x="529" y="472" type="curve" smooth="yes"/>
      <point x="622" y="472"/>
      <point x="673" y="411"/>
      <point x="653" y="297" type="curve" smooth="yes"/>
      <point x="650" y="277"/>
      <point x="642" y="243"/>
      <point x="637" y="223" type="curve" smooth="yes"/>
      <point x="609" y="109"/>
      <point x="532" y="48"/>
    </contour>
  </outline>
</glyph>
<glyph name="Yat-cy" format="2">
  <advance width="648"/>
  <unicode hex="0462"/>
  <outline>
    <contour>
      <point x="94" y="530" type="curve"/>
      <point x="462" y="530" type="line"/>
      <point x="476" y="530"/>
      <point x="487" y="539"/>
      <point x="490" y="552" type="curve" smooth="yes"/>
      <point x="493" y="567" type="line" smooth="yes"/>
      <point x="496" y="581"/>
      <point x="489" y="590"/>
      <point x="475" y="590" type="curve" smooth="yes"/>
      <point x="107" y="590" type="line" smooth="yes"/>
      <point x="94" y="590"/>
      <point x="83" y="581"/>
      <point x="80" y="567" type="curve" smooth="yes"/>
      <point x="77" y="552" type="line" smooth="yes"/>
      <point x="74" y="539"/>
      <point x="81" y="530"/>
    </contour>
    <component base="Softsign-cy" xOffset="57"/>
  </outline>
</glyph>
<glyph name="Yusbig-cy" format="2">
  <advance width="889"/>
  <unicode hex="046A"/>
  <outline>
    <contour>
      <point x="32" y="0" type="curve" smooth="yes"/>
      <point x="52" y="0" type="line" smooth="yes"/>
      <point x="60" y="0"/>
      <point x="69" y="5"/>
      <point x="73" y="13" type="curve" smooth="yes"/>
      <point x="211" y="246" type="line" smooth="yes"/>
      <point x="246" y="305"/>
      <point x="273" y="325"/>
      <point x="335" y="325" type="curve" smooth="yes"/>
      <point x="427" y="325" type="line"/>
      <point x="362" y="22" type="line" smooth="yes"/>
      <point x="360" y="9"/>
      <point x="367" y="0"/>
      <point x="381" y="0" type="curve" smooth="yes"/>
      <point x="399" y="0" type="line" smooth="yes"/>
      <point x="412" y="0"/>
      <point x="423" y="9"/>
      <point x="425" y="22" type="curve" smooth="yes"/>
      <point x="490" y="325" type="line"/>
      <point x="582" y="325" type="line" smooth="yes"/>
      <point x="644" y="325"/>
      <point x="661" y="305"/>
      <point x="672" y="246" type="curve" smooth="yes"/>
      <point x="710" y="13" type="line" smooth="yes"/>
      <point x="712" y="5"/>
      <point x="719" y="0"/>
      <point x="727" y="0" type="curve" smooth="yes"/>
      <point x="747" y="0" type="line" smooth="yes"/>
      <point x="764" y="0"/>
      <point x="778" y="17"/>
      <point x="775" y="35" type="curve" smooth="yes"/>
      <point x="737" y="268" type="line" smooth="yes"/>
      <point x="721" y="360"/>
      <point x="675" y="384"/>
      <point x="594" y="384" type="curve" smooth="yes"/>
      <point x="540" y="384" type="line"/>
      <point x="837" y="667" type="line" smooth="yes"/>
      <point x="841" y="671"/>
      <point x="843" y="675"/>
      <point x="844" y="680" type="curve" smooth="yes"/>
      <point x="846" y="691"/>
      <point x="839" y="700"/>
      <point x="828" y="700" type="curve" smooth="yes"/>
      <point x="248" y="700" type="line" smooth="yes"/>
      <point x="237" y="700"/>
      <point x="226" y="691"/>
      <point x="224" y="680" type="curve" smooth="yes"/>
      <point x="223" y="675"/>
      <point x="223" y="671"/>
      <point x="225" y="667" type="curve" smooth="yes"/>
      <point x="399" y="384" type="line"/>
      <point x="347" y="384" type="line" smooth="yes"/>
      <point x="266" y="384"/>
      <point x="210" y="360"/>
      <point x="156" y="268" type="curve" smooth="yes"/>
      <point x="18" y="35" type="line" smooth="yes"/>
      <point x="7" y="17"/>
      <point x="15" y="0"/>
    </contour>
    <contour>
      <point x="486" y="360" type="line"/>
      <point x="313" y="640" type="line"/>
      <point x="730" y="640" type="line"/>
      <point x="440" y="362" type="line"/>
    </contour>
  </outline>
</glyph>
<glyph name="yusbig-cy" format="2">
  <advance width="697"/>
  <unicode hex="046B"/>
  <outline>
    <contour>
      <point x="-36" y="0" type="curve" smooth="yes"/>
      <point x="-5" y="0" type="line" smooth="yes"/>
      <point x="7" y="0"/>
      <point x="15" y="5"/>
      <point x="24" y="14" type="curve"/>
      <point x="162" y="182" type="line" smooth="yes"/>
      <point x="198" y="226"/>
      <point x="227" y="237"/>
      <point x="273" y="237" type="curve" smooth="yes"/>
      <point x="313" y="237" type="line"/>
      <point x="267" y="22" type="line" smooth="yes"/>
      <point x="265" y="9"/>
      <point x="272" y="0"/>
      <point x="285" y="0" type="curve" smooth="yes"/>
      <point x="302" y="0" type="line" smooth="yes"/>
      <point x="315" y="0"/>
      <point x="326" y="9"/>
      <point x="328" y="22" type="curve" smooth="yes"/>
      <point x="374" y="237" type="line"/>
      <point x="424" y="237" type="line" smooth="yes"/>
      <point x="470" y="237"/>
      <point x="493" y="226"/>
      <point x="511" y="182" type="curve" smooth="yes"/>
      <point x="579" y="14" type="line"/>
      <point x="584" y="5"/>
      <point x="590" y="0"/>
      <point x="602" y="0" type="curve" smooth="yes"/>
      <point x="623" y="0" type="line" smooth="yes"/>
      <point x="635" y="0"/>
      <point x="643" y="5"/>
      <point x="645" y="14" type="curve" smooth="yes"/>
      <point x="646" y="18"/>
      <point x="645" y="22"/>
      <point x="642" y="27" type="curve"/>
      <point x="563" y="216" type="line" smooth="yes"/>
      <point x="535" y="282"/>
      <point x="496" y="295"/>
      <point x="444" y="295" type="curve" smooth="yes"/>
      <point x="426" y="295" type="line"/>
      <point x="620" y="487" type="line" smooth="yes"/>
      <point x="624" y="491"/>
      <point x="627" y="496"/>
      <point x="628" y="501" type="curve" smooth="yes"/>
      <point x="630" y="511"/>
      <point x="625" y="520"/>
      <point x="612" y="520" type="curve" smooth="yes"/>
      <point x="192" y="520" type="line" smooth="yes"/>
      <point x="182" y="520"/>
      <point x="171" y="512"/>
      <point x="168" y="500" type="curve" smooth="yes"/>
      <point x="167" y="495"/>
      <point x="167" y="490"/>
      <point x="171" y="484" type="curve" smooth="yes"/>
      <point x="285" y="295" type="line"/>
      <point x="267" y="295" type="line" smooth="yes"/>
      <point x="215" y="295"/>
      <point x="172" y="282"/>
      <point x="116" y="216" type="curve" smooth="yes"/>
      <point x="-45" y="27" type="line"/>
      <point x="-50" y="22"/>
      <point x="-51" y="18"/>
      <point x="-52" y="14" type="curve" smooth="yes"/>
      <point x="-54" y="5"/>
      <point x="-48" y="0"/>
    </contour>
    <contour>
      <point x="369" y="266" type="line"/>
      <point x="232" y="497" type="line"/>
      <point x="225" y="462" type="line"/>
      <point x="561" y="462" type="line"/>
      <point x="554" y="492" type="line"/>
      <point x="330" y="272" type="line"/>
    </contour>
  </outline>
</glyph>
<glyph name="Izhitsa-cy" format="2">
  <advance width="656"/>
  <unicode hex="0474"/>
  <outline>
    <contour>
      <point x="242" y="0" type="curve" smooth="yes"/>
      <point x="267" y="0" type="line" smooth="yes"/>
      <point x="285" y="0"/>
      <point x="296" y="8"/>
      <point x="306" y="24" type="curve"/>
      <point x="563" y="511" type="line" smooth="yes"/>
      <point x="620" y="618"/>
      <point x="649" y="650"/>
      <point x="695" y="650" type="curve" smooth="yes"/>
      <point x="702" y="650" type="line" smooth="yes"/>
      <point x="712" y="650"/>
      <point x="720" y="656"/>
      <point x="722" y="666" type="curve" smooth="yes"/>
      <point x="725" y="679" type="line" smooth="yes"/>
      <point x="729" y="698"/>
      <point x="726" y="710"/>
      <point x="707" y="710" type="curve"/>
      <point x="701" y="710" type="line"/>
      <point x="625" y="707"/>
      <point x="580" y="653"/>
      <point x="512" y="527" type="curve" smooth="yes"/>
      <point x="267" y="72" type="line"/>
      <point x="179" y="681" type="line"/>
      <point x="178" y="691"/>
      <point x="173" y="700"/>
      <point x="160" y="700" type="curve" smooth="yes"/>
      <point x="142" y="700" type="line" smooth="yes"/>
      <point x="120" y="700"/>
      <point x="115" y="690"/>
      <point x="118" y="669" type="curve" smooth="yes"/>
      <point x="213" y="24" type="line" smooth="yes"/>
      <point x="215" y="8"/>
      <point x="224" y="0"/>
    </contour>
  </outline>
</glyph>
<glyph name="Kadescender-cy" format="2">
  <advance width="642"/>
  <unicode hex="049A"/>
  <outline>
    <contour>
      <point x="502" y="-140" type="curve" smooth="yes"/>
      <point x="520" y="-140" type="line" smooth="yes"/>
      <point x="534" y="-140"/>
      <point x="545" y="-131"/>
      <point x="547" y="-118" type="curve" smooth="yes"/>
      <point x="581" y="38" type="line" smooth="yes"/>
      <point x="583" y="51"/>
      <point x="576" y="60"/>
      <point x="562" y="60" type="curve" smooth="yes"/>
      <point x="449" y="60" type="line"/>
      <point x="466" y="0" type="line"/>
      <point x="509" y="0" type="line"/>
      <point x="484" y="-118" type="line" smooth="yes"/>
      <point x="482" y="-131"/>
      <point x="489" y="-140"/>
    </contour>
    <component base="Ka-cy"/>
  </outline>
</glyph>
<glyph name="kadescender-cy" format="2">
  <advance width="524"/>
  <unicode hex="049B"/>
  <outline>
    <contour>
      <point x="406" y="-130" type="curve" smooth="yes"/>
      <point x="423" y="-130" type="line" smooth="yes"/>
      <point x="436" y="-130"/>
      <point x="447" y="-121"/>
      <point x="450" y="-108" type="curve" smooth="yes"/>
      <point x="480" y="36" type="line" smooth="yes"/>
      <point x="483" y="49"/>
      <point x="476" y="58"/>
      <point x="463" y="58" type="curve" smooth="yes"/>
      <point x="363" y="58" type="line"/>
      <point x="382" y="0" type="line"/>
      <point x="412" y="0" type="line"/>
      <point x="389" y="-108" type="line" smooth="yes"/>
      <point x="386" y="-121"/>
      <point x="393" y="-130"/>
    </contour>
    <component base="ka-cy"/>
  </outline>
</glyph>
<glyph name="Shha-cy" format="2">
  <advance width="632"/>
  <unicode hex="04BA"/>
  <outline>
    <contour>
      <point x="220" y="700" type="curve" smooth="yes"/>
      <point x="202" y="700" type="line" smooth="yes"/>
      <point x="188" y="700"/>
      <point x="177" y="691"/>
      <point x="175" y="678" type="curve" smooth="yes"/>
      <point x="35" y="22" type="line" smooth="yes"/>
      <point x="33" y="9"/>
      <point x="40" y="0"/>
      <point x="54" y="0" type="curve" smooth="yes"/>
      <point x="72" y="0" type="line" smooth="yes"/>
      <point x="85" y="0"/>
      <point x="96" y="9"/>
      <point x="98" y="22" type="curve" smooth="yes"/>
      <point x="153" y="278" type="line" smooth="yes"/>
      <point x="174" y="379"/>
      <point x="290" y="398"/>
      <point x="358" y="398" type="curve" smooth="yes"/>
      <point x="486" y="398"/>
      <point x="523" y="351"/>
      <point x="502" y="251" type="curve" smooth="yes"/>
      <point x="453" y="22" type="line" smooth="yes"/>
      <point x="451" y="9"/>
      <point x="458" y="0"/>
      <point x="472" y="0" type="curve" smooth="yes"/>
      <point x="490" y="0" type="line" smooth="yes"/>
      <point x="503" y="0"/>
      <point x="514" y="9"/>
      <point x="516" y="22" type="curve" smooth="yes"/>
      <point x="566" y="256" type="line" smooth="yes"/>
      <point x="592" y="376"/>
      <point x="527" y="458"/>
      <point x="379" y="458" type="curve" smooth="yes"/>
      <point x="314" y="458"/>
      <point x="218" y="442"/>
      <point x="179" y="403" type="curve"/>
      <point x="238" y="678" type="line" smooth="yes"/>
      <point x="240" y="691"/>
      <point x="233" y="700"/>
    </contour>
  </outline>
</glyph>
<glyph name="chekhakassian-cy" format="2">
  <advance width="510"/>
  <unicode hex="04CC"/>
  <outline>
    <contour>
      <point x="267" y="-130" type="line" smooth="yes"/>
      <point x="280" y="-130"/>
      <point x="291" y="-121"/>
      <point x="294" y="-108" type="curve" smooth="yes"/>
      <point x="317" y="0" type="line"/>
      <point x="357" y="0" type="line"/>
      <point x="400" y="58" type="line"/>
      <point x="290" y="58" type="line" smooth="yes"/>
      <point x="277" y="58"/>
      <point x="266" y="49"/>
      <point x="263" y="36" type="curve" smooth="yes"/>
      <point x="233" y="-108" type="line" smooth="yes"/>
      <point x="230" y="-121"/>
      <point x="237" y="-130"/>
      <point x="250" y="-130" type="curve" smooth="yes"/>
    </contour>
    <contour>
      <point x="367" y="0" type="curve" smooth="yes"/>
      <point x="384" y="0" type="line" smooth="yes"/>
      <point x="397" y="0"/>
      <point x="407" y="9"/>
      <point x="410" y="22" type="curve" smooth="yes"/>
      <point x="512" y="498" type="line" smooth="yes"/>
      <point x="515" y="511"/>
      <point x="507" y="520"/>
      <point x="494" y="520" type="curve" smooth="yes"/>
      <point x="477" y="520" type="line" smooth="yes"/>
      <point x="464" y="520"/>
      <point x="454" y="511"/>
      <point x="451" y="498" type="curve" smooth="yes"/>
      <point x="411" y="311" type="line" smooth="yes"/>
      <point x="398" y="250"/>
      <point x="327" y="231"/>
      <point x="228" y="231" type="curve" smooth="yes"/>
      <point x="153" y="231"/>
      <point x="122" y="261"/>
      <point x="138" y="336" type="curve" smooth="yes"/>
      <point x="172" y="498" type="line" smooth="yes"/>
      <point x="175" y="511"/>
      <point x="167" y="520"/>
      <point x="154" y="520" type="curve" smooth="yes"/>
      <point x="137" y="520" type="line" smooth="yes"/>
      <point x="124" y="520"/>
      <point x="114" y="511"/>
      <point x="111" y="498" type="curve" smooth="yes"/>
      <point x="73" y="322" type="line" smooth="yes"/>
      <point x="52" y="227"/>
      <point x="118" y="173"/>
      <point x="222" y="173" type="curve" smooth="yes"/>
      <point x="291" y="173"/>
      <point x="347" y="188"/>
      <point x="393" y="226" type="curve"/>
      <point x="349" y="22" type="line" smooth="yes"/>
      <point x="346" y="9"/>
      <point x="354" y="0"/>
    </contour>
  </outline>
</glyph>
<glyph name="schwa-cy" format="2">
  <advance width="544"/>
  <unicode hex="04D9"/>
  <outline>
    <contour>
      <point x="321" y="530" type="curve" smooth="yes"/>
      <point x="195" y="530"/>
      <point x="99" y="447"/>
      <point x="89" y="409" type="curve" smooth="yes"/>
      <point x="86" y="397"/>
      <point x="94" y="389"/>
      <point x="106" y="389" type="curve" smooth="yes"/>
      <point x="122" y="389" type="line" smooth="yes"/>
      <point x="137" y="389"/>
      <point x="140" y="390"/>
      <point x="156" y="407" type="curve" smooth="yes"/>
      <point x="170" y="423"/>
      <point x="224" y="472"/>
      <point x="309" y="472" type="curve" smooth="yes"/>
      <point x="406" y="472"/>
      <point x="444" y="386"/>
      <point x="429" y="295" type="curve" smooth="yes"/>
      <point x="428" y="292"/>
      <point x="427" y="285"/>
      <point x="427" y="285" type="curve"/>
      <point x="71" y="285" type="line" smooth="yes"/>
      <point x="58" y="285"/>
      <point x="46" y="276"/>
      <point x="43" y="263" type="curve" smooth="yes"/>
      <point x="40" y="248" type="line" smooth="yes"/>
      <point x="6" y="88"/>
      <point x="67" y="-10"/>
      <point x="206" y="-10" type="curve" smooth="yes"/>
      <point x="336" y="-10"/>
      <point x="435" y="84"/>
      <point x="474" y="220" type="curve" smooth="yes"/>
      <point x="479" y="240"/>
      <point x="488" y="280"/>
      <point x="491" y="300" type="curve" smooth="yes"/>
      <point x="510" y="437"/>
      <point x="450" y="530"/>
    </contour>
    <contour>
      <point x="415" y="229" type="line"/>
      <point x="414" y="225" type="line" smooth="yes"/>
      <point x="393" y="125"/>
      <point x="318" y="48"/>
      <point x="218" y="48" type="curve" smooth="yes"/>
      <point x="118" y="48"/>
      <point x="75" y="125"/>
      <point x="96" y="225" type="curve" smooth="yes"/>
      <point x="97" y="229" type="line"/>
    </contour>
  </outline>
</glyph>
<glyph name="pedescender-cy" format="2">
  <advance width="593"/>
  <unicode hex="0525"/>
  <outline>
    <contour>
      <point x="49" y="0" type="curve"/>
      <point x="66" y="0" type="line" smooth="yes"/>
      <point x="79" y="0"/>
      <point x="89" y="9"/>
      <point x="92" y="22" type="curve" smooth="yes"/>
      <point x="186" y="462" type="line"/>
      <point x="478" y="462" type="line"/>
      <point x="384" y="22" type="line" smooth="yes"/>
      <point x="381" y="9"/>
      <point x="389" y="0"/>
      <point x="402" y="0" type="curve" smooth="yes"/>
      <point x="419" y="0" type="line" smooth="yes"/>
      <point x="432" y="0"/>
      <point x="442" y="9"/>
      <point x="445" y="22" type="curve" smooth="yes"/>
      <point x="546" y="498" type="line" smooth="yes"/>
      <point x="549" y="511"/>
      <point x="542" y="520"/>
      <point x="529" y="520" type="curve" smooth="yes"/>
      <point x="159" y="520" type="line" smooth="yes"/>
      <point x="146" y="520"/>
      <point x="135" y="511"/>
      <point x="132" y="498" type="curve" smooth="yes"/>
      <point x="31" y="22" type="line" smooth="yes"/>
      <point x="28" y="9"/>
      <point x="36" y="0"/>
    </contour>
    <contour>
      <point x="446" y="-130" type="curve" smooth="yes"/>
      <point x="463" y="-130" type="line" smooth="yes"/>
      <point x="476" y="-130"/>
      <point x="487" y="-121"/>
      <point x="490" y="-108" type="curve" smooth="yes"/>
      <point x="520" y="36" type="line" smooth="yes"/>
      <point x="523" y="49"/>
      <point x="516" y="58"/>
      <point x="503" y="58" type="curve" smooth="yes"/>
      <point x="393" y="58" type="line"/>
      <point x="412" y="0" type="line"/>
      <point x="452" y="0" type="line"/>
      <point x="429" y="-108" type="line" smooth="yes"/>
      <point x="426" y="-121"/>
      <point x="433" y="-130"/>
    </contour>
  </outline>
</glyph>
<glyph name="uni05B8" format="2">
  <unicode hex="05B8"/>
  <anchor x="-49" y="0" name="_bottom"/>
  <outline>
    <contour>
      <point x="58" y="-101" type="curve" smooth="yes"/>
      <point x="56" y="-109" type="line" smooth="yes"/>
      <point x="53.32" y="-122.4"/>
      <point x="42.4" y="-131.0"/>
      <point x="29" y="-131" type="curve" smooth="yes"/>
      <point x="-50" y="-131" type="line"/>
      <point x="-70" y="-223" type="line"/>
      <point x="-72.68" y="-236.4"/>
      <point x="-83.6" y="-245.0"/>
      <point x="-97" y="-245" type="curve" smooth="yes"/>
      <point x="-104" y="-245" type="line" smooth="yes"/>
      <point x="-117.4" y="-245.0"/>
      <point x="-123.68" y="-236.4"/>
      <point x="-121" y="-223" type="curve"/>
      <point x="-101" y="-131" type="line"/>
      <point x="-179" y="-131" type="line" smooth="yes"/>
      <point x="-192.4" y="-131.0"/>
      <point x="-198.68" y="-122.4"/>
      <point x="-196" y="-109" type="curve" smooth="yes"/>
      <point x="-194" y="-101" type="line" smooth="yes"/>
      <point x="-191.32" y="-87.6"/>
      <point x="-181.4" y="-79.0"/>
      <point x="-168" y="-79" type="curve" smooth="yes"/>
      <point x="40" y="-79" type="line" smooth="yes"/>
      <point x="53.4" y="-79.0"/>
      <point x="60.68" y="-87.6"/>
    </contour>
  </outline>
</glyph>
<glyph name="dagesh-hb" format="2">
  <unicode hex="05BC"/>
  <anchor x="14" y="289" name="_center"/>
  <outline>
    <contour>
      <point x="1" y="285" type="curve" smooth="yes"/>
      <point x="24" y="285" type="line" smooth="yes"/>
      <point x="37" y="285"/>
      <point x="48" y="294"/>
      <point x="50" y="307" type="curve" smooth="yes"/>
      <point x="55" y="330" type="line" smooth="yes"/>
      <point x="58" y="343"/>
      <point x="51" y="352"/>
      <point x="38" y="352" type="curve" smooth="yes"/>
      <point x="15" y="352" type="line" smooth="yes"/>
      <point x="2" y="352"/>
      <point x="-9" y="343"/>
      <point x="-12" y="330" type="curve" smooth="yes"/>
      <point x="-17" y="307" type="line" smooth="yes"/>
      <point x="-19" y="294"/>
      <point x="-12" y="285"/>
    </contour>
  </outline>
</glyph>
<glyph name="bet-hb" format="2">
  <advance width="532"/>
  <unicode hex="05D1"/>
  <guideline x="284" y="571" angle="0"/>
  <guideline x="324"/>
  <guideline x="800"/>
  <anchor x="217" y="0" name="bottom"/>
  <anchor x="-29" y="0" name="bottomleft"/>
  <anchor x="221" y="260" name="center"/>
  <anchor x="328" y="520" name="top"/>
  <anchor x="82" y="520" name="topleft"/>
  <outline>
    <contour>
      <point x="31" y="0" type="curve" smooth="yes"/>
      <point x="431" y="0" type="line" smooth="yes"/>
      <point x="444" y="0"/>
      <point x="455" y="9"/>
      <point x="458" y="22" type="curve" smooth="yes"/>
      <point x="461" y="36" type="line" smooth="yes"/>
      <point x="464" y="49"/>
      <point x="457" y="58"/>
      <point x="444" y="58" type="curve" smooth="yes"/>
      <point x="406" y="58" type="line"/>
      <point x="463" y="327" type="line" smooth="yes"/>
      <point x="495" y="481"/>
      <point x="438" y="571"/>
      <point x="268" y="571" type="curve" smooth="yes"/>
      <point x="163" y="571" type="line" smooth="yes"/>
      <point x="150" y="571"/>
      <point x="139" y="562"/>
      <point x="136" y="549" type="curve"/>
      <point x="133" y="535" type="line" smooth="yes"/>
      <point x="130" y="522"/>
      <point x="137" y="513"/>
      <point x="150" y="513" type="curve" smooth="yes"/>
      <point x="250" y="513" type="line" smooth="yes"/>
      <point x="385" y="513"/>
      <point x="426" y="442"/>
      <point x="401" y="322" type="curve" smooth="yes"/>
      <point x="345" y="58" type="line"/>
      <point x="44" y="58" type="line" smooth="yes"/>
      <point x="31" y="58"/>
      <point x="20" y="49"/>
      <point x="17" y="36" type="curve" smooth="yes"/>
      <point x="14" y="22" type="line" smooth="yes"/>
      <point x="11" y="9"/>
      <point x="18" y="0"/>
    </contour>
  </outline>
</glyph>
<glyph name="finalkaf-hb" format="2">
  <advance width="570"/>
  <unicode hex="05DA"/>
  <guideline x="361" y="61" angle="0"/>
  <anchor x="245" y="243" name="bottom"/>
  <anchor x="32" y="0" name="bottomleft"/>
  <anchor x="317" y="260" name="center"/>
  <anchor x="373" y="520" name="top"/>
  <anchor x="143" y="520" name="topleft"/>
  <outline>
    <contour>
      <point x="451" y="322" type="curve"/>
      <point x="361" y="-102" type="line"/>
      <point x="358" y="-115"/>
      <point x="365" y="-124"/>
      <point x="378" y="-124" type="curve" smooth="yes"/>
      <point x="395" y="-124" type="line" smooth="yes"/>
      <point x="408" y="-124"/>
      <point x="419" y="-115"/>
      <point x="422" y="-102" type="curve"/>
      <point x="513" y="327" type="line"/>
      <point x="547" y="488"/>
      <point x="487" y="571"/>
      <point x="317" y="571" type="curve" smooth="yes"/>
      <point x="170" y="571" type="line" smooth="yes"/>
      <point x="157" y="571"/>
      <point x="146" y="562"/>
      <point x="143" y="549" type="curve" smooth="yes"/>
      <point x="140" y="535" type="line" smooth="yes"/>
      <point x="137" y="522"/>
      <point x="144" y="513"/>
      <point x="157" y="513" type="curve" smooth="yes"/>
      <point x="299" y="513" type="line" smooth="yes"/>
      <point x="434" y="513"/>
      <point x="476" y="442"/>
    </contour>
  </outline>
</glyph>
<glyph name="finalpe-hb" format="2">
  <advance width="570"/>
  <unicode hex="05E3"/>
  <guideline x="300" y="571" angle="0"/>
  <guideline x="2118"/>
  <anchor x="236" y="0" name="bottom"/>
  <anchor x="-29" y="0" name="bottomleft"/>
  <anchor x="337" y="250" name="center"/>
  <anchor x="347" y="520" name="top"/>
  <anchor x="82" y="520" name="topleft"/>
  <outline>
    <contour>
      <point x="199" y="513" type="line"/>
      <point x="300" y="513" type="line"/>
      <point x="435" y="513"/>
      <point x="476" y="442"/>
      <point x="451" y="322" type="curve" smooth="yes"/>
      <point x="361" y="-102" type="line" smooth="yes"/>
      <point x="358" y="-115"/>
      <point x="365" y="-124"/>
      <point x="378" y="-124" type="curve" smooth="yes"/>
      <point x="395" y="-124" type="line" smooth="yes"/>
      <point x="408" y="-124"/>
      <point x="419" y="-115"/>
      <point x="422" y="-102" type="curve" smooth="yes"/>
      <point x="513" y="327" type="line" smooth="yes"/>
      <point x="546" y="482"/>
      <point x="488" y="571"/>
      <point x="318" y="571" type="curve"/>
      <point x="174" y="571" type="line"/>
      <point x="161" y="571"/>
      <point x="150" y="562"/>
      <point x="147" y="549" type="curve" smooth="yes"/>
      <point x="114" y="393" type="line"/>
      <point x="92" y="292"/>
      <point x="111" y="240"/>
      <point x="172" y="225" type="curve" smooth="yes"/>
      <point x="208" y="216" type="line" smooth="yes"/>
      <point x="221" y="213"/>
      <point x="240" y="218"/>
      <point x="242" y="231" type="curve" smooth="yes"/>
      <point x="245" y="245" type="line" smooth="yes"/>
      <point x="249" y="262"/>
      <point x="245" y="274"/>
      <point x="235" y="277" type="curve" smooth="yes"/>
      <point x="196" y="287" type="line" smooth="yes"/>
      <point x="163" y="296"/>
      <point x="161" y="335"/>
      <point x="174" y="393" type="curve"/>
    </contour>
  </outline>
</glyph>
<glyph name="tav-hb" format="2">
  <advance width="639"/>
  <unicode hex="05EA"/>
  <guideline x="270" y="571" angle="0"/>
  <guideline x="846"/>
  <guideline x="320"/>
  <anchor x="310" y="0" name="bottom"/>
  <anchor x="-29" y="0" name="bottomleft"/>
  <anchor x="365" y="260" name="center"/>
  <anchor x="421" y="520" name="top"/>
  <anchor x="82" y="520" name="topleft"/>
  <outline>
    <contour>
      <point x="182" y="513" type="curve"/>
      <point x="369" y="513" type="line"/>
      <point x="504" y="513"/>
      <point x="545" y="442"/>
      <point x="520" y="322" type="curve" smooth="yes"/>
      <point x="456" y="22" type="line" smooth="yes"/>
      <point x="453" y="9"/>
      <point x="460" y="0"/>
      <point x="473" y="0" type="curve" smooth="yes"/>
      <point x="490" y="0" type="line" smooth="yes"/>
      <point x="503" y="0"/>
      <point x="514" y="9"/>
      <point x="517" y="22" type="curve" smooth="yes"/>
      <point x="582" y="327" type="line" smooth="yes"/>
      <point x="615" y="482"/>
      <point x="557" y="571"/>
      <point x="387" y="571" type="curve" smooth="yes"/>
      <point x="195" y="571" type="line" smooth="yes"/>
      <point x="182" y="571"/>
      <point x="171" y="562"/>
      <point x="168" y="549" type="curve" smooth="yes"/>
      <point x="165" y="535" type="line" smooth="yes"/>
      <point x="162" y="522"/>
      <point x="169" y="513"/>
    </contour>
    <contour>
      <point x="266" y="553" type="line" smooth="yes"/>
      <point x="253" y="553"/>
      <point x="247" y="545"/>
      <point x="241" y="532" type="curve" smooth="yes"/>
      <point x="199" y="436"/>
      <point x="185" y="382"/>
      <point x="167" y="292" type="curve"/>
      <point x="118" y="59" type="line"/>
      <point x="43" y="60" type="line" smooth="yes"/>
      <point x="30" y="60"/>
      <point x="19" y="51"/>
      <point x="16" y="38" type="curve" smooth="yes"/>
      <point x="13" y="24" type="line" smooth="yes"/>
      <point x="11" y="11"/>
      <point x="18" y="2"/>
      <point x="31" y="2" type="curve" smooth="yes"/>
      <point x="144" y="0" type="line" smooth="yes"/>
      <point x="157" y="0"/>
      <point x="168" y="9"/>
      <point x="171" y="22" type="curve" smooth="yes"/>
      <point x="229" y="297" type="line"/>
      <point x="247" y="385"/>
      <point x="266" y="438"/>
      <point x="300" y="531" type="curve"/>
      <point x="303" y="544"/>
      <point x="296" y="553"/>
      <point x="283" y="553" type="curve" smooth="yes"/>
    </contour>
  </outline>
</glyph>
<glyph name="zeroinferior" format="2">
  <advance width="362"/>
  <unicode hex="2080"/>
  <guideline x="-150" y="-170" angle="0"/>
  <guideline x="-150" y="180" angle="0"/>
  <guideline x="22"/>
  <guideline x="-492"/>
  <outline>
    <contour>
      <point x="95" y="-175" type="curve" smooth="yes"/>
      <point x="182" y="-175"/>
      <point x="243" y="-120"/>
      <point x="264" y="-40" type="curve" smooth="yes"/>
      <point x="273" y="-6"/>
      <point x="277" y="12"/>
      <point x="283" y="49" type="curve" smooth="yes"/>
      <point x="296" y="129"/>
      <point x="264" y="185"/>
      <point x="172" y="185" type="curve" smooth="yes"/>
      <point x="80" y="185"/>
      <point x="24" y="129"/>
      <point x="3" y="49" type="curve" smooth="yes"/>
      <point x="-7" y="12"/>
      <point x="-11" y="-6"/>
      <point x="-16" y="-40" type="curve" smooth="yes"/>
      <point x="-29" y="-120"/>
      <point x="8" y="-175"/>
    </contour>
    <contour>
      <point x="107" y="-119" type="curve" smooth="yes"/>
      <point x="47" y="-119"/>
      <point x="37" y="-75"/>
      <point x="42" y="-37" type="curve" smooth="yes"/>
      <point x="48" y="0"/>
      <point x="51" y="11"/>
      <point x="60" y="46" type="curve" smooth="yes"/>
      <point x="70" y="86"/>
      <point x="101" y="129"/>
      <point x="160" y="129" type="curve" smooth="yes"/>
      <point x="219" y="129"/>
      <point x="230" y="86"/>
      <point x="224" y="46" type="curve" smooth="yes"/>
      <point x="219" y="11"/>
      <point x="216" y="0"/>
      <point x="206" y="-37" type="curve" smooth="yes"/>
      <point x="195" y="-75"/>
      <point x="167" y="-119"/>
    </contour>
  </outline>
</glyph>
<glyph name="fiveinferior" format="2">
  <advance width="325"/>
  <unicode hex="2085"/>
  <guideline x="-150" y="-170" angle="0"/>
  <guideline x="-150" y="180" angle="0"/>
  <guideline x="156"/>
  <guideline x="-124"/>
  <guideline x="14"/>
  <outline>
    <contour>
      <point x="77" y="-175" type="curve" smooth="yes"/>
      <point x="160" y="-175"/>
      <point x="219" y="-113"/>
      <point x="231" y="-56" type="curve" smooth="yes"/>
      <point x="246" y="15"/>
      <point x="212" y="60"/>
      <point x="132" y="60" type="curve" smooth="yes"/>
      <point x="96" y="60"/>
      <point x="78" y="51"/>
      <point x="70" y="48" type="curve"/>
      <point x="95" y="124" type="line"/>
      <point x="233" y="124" type="line" smooth="yes"/>
      <point x="246" y="124"/>
      <point x="256" y="133"/>
      <point x="259" y="146" type="curve" smooth="yes"/>
      <point x="262" y="158" type="line" smooth="yes"/>
      <point x="265" y="171"/>
      <point x="257" y="180"/>
      <point x="244" y="180" type="curve" smooth="yes"/>
      <point x="76" y="180" type="line"/>
      <point x="62" y="179"/>
      <point x="51" y="167"/>
      <point x="46" y="153" type="curve" smooth="yes"/>
      <point x="0" y="7" type="line" smooth="yes"/>
      <point x="-5" y="-7"/>
      <point x="2" y="-19"/>
      <point x="16" y="-19" type="curve" smooth="yes"/>
      <point x="43" y="-19" type="line" smooth="yes"/>
      <point x="63" y="-19"/>
      <point x="65" y="4"/>
      <point x="120" y="4" type="curve" smooth="yes"/>
      <point x="160" y="4"/>
      <point x="181" y="-19"/>
      <point x="173" y="-56" type="curve" smooth="yes"/>
      <point x="166" y="-90"/>
      <point x="133" y="-119"/>
      <point x="89" y="-119" type="curve" smooth="yes"/>
      <point x="38" y="-119"/>
      <point x="31" y="-105"/>
      <point x="22" y="-87" type="curve" smooth="yes"/>
      <point x="19" y="-81"/>
      <point x="13" y="-76"/>
      <point x="4" y="-76" type="curve" smooth="yes"/>
      <point x="-16" y="-76" type="line" smooth="yes"/>
      <point x="-22" y="-76"/>
      <point x="-35" y="-82"/>
      <point x="-37" y="-95" type="curve" smooth="yes"/>
      <point x="-43" y="-137"/>
      <point x="-1" y="-175"/>
    </contour>
  </outline>
</glyph>
<glyph name="partialdiff" format="2">
  <advance width="553"/>
  <unicode hex="2202"/>
  <outline>
    <contour>
      <point x="212" y="-10" type="curve" smooth="yes"/>
      <point x="366" y="-10"/>
      <point x="449" y="94"/>
      <point x="478" y="231" type="curve"/>
      <point x="482" y="250"/>
      <point x="485" y="268"/>
      <point x="488" y="286" type="curve" smooth="yes"/>
      <point x="522" y="511"/>
      <point x="458" y="594"/>
      <point x="371" y="687" type="curve" smooth="yes"/>
      <point x="362" y="695"/>
      <point x="353" y="700"/>
      <point x="337" y="700" type="curve"/>
      <point x="317" y="700" type="line" smooth="yes"/>
      <point x="305" y="700"/>
      <point x="295" y="691"/>
      <point x="295" y="679" type="curve" smooth="yes"/>
      <point x="295" y="673"/>
      <point x="298" y="665"/>
      <point x="305" y="658" type="curve"/>
      <point x="373" y="591"/>
      <point x="423" y="533"/>
      <point x="433" y="431" type="curve"/>
      <point x="404" y="456"/>
      <point x="356" y="470"/>
      <point x="303" y="470" type="curve" smooth="yes"/>
      <point x="159" y="470"/>
      <point x="68" y="368"/>
      <point x="40" y="231" type="curve"/>
      <point x="9" y="94"/>
      <point x="68" y="-10"/>
    </contour>
    <contour>
      <point x="212" y="48" type="curve" smooth="yes"/>
      <point x="107" y="48"/>
      <point x="79" y="130"/>
      <point x="101" y="231" type="curve" smooth="yes"/>
      <point x="102" y="238"/>
      <point x="104" y="244"/>
      <point x="106" y="250" type="curve" smooth="yes"/>
      <point x="132" y="342"/>
      <point x="205" y="412"/>
      <point x="303" y="412" type="curve" smooth="yes"/>
      <point x="402" y="412"/>
      <point x="434" y="341"/>
      <point x="420" y="249" type="curve" smooth="yes"/>
      <point x="419" y="243"/>
      <point x="418" y="237"/>
      <point x="417" y="231" type="curve" smooth="yes"/>
      <point x="395" y="130"/>
      <point x="317" y="48"/>
    </contour>
  </outline>
</glyph>
<glyph name="descender-cy" format="2">
  <advance width="186"/>
  <guideline x="52" y="60" angle="0"/>
  <guideline x="86" y="369" angle="90"/>
  <anchor x="8" y="0" name="_bottomright"/>
  <outline>
    <contour>
      <point x="73" y="-130" type="curve" smooth="yes"/>
      <point x="90" y="-130" type="line" smooth="yes"/>
      <point x="103" y="-130"/>
      <point x="114" y="-121"/>
      <point x="117" y="-108" type="curve" smooth="yes"/>
      <point x="147" y="36" type="line" smooth="yes"/>
      <point x="150" y="49"/>
      <point x="143" y="58"/>
      <point x="130" y="58" type="curve" smooth="yes"/>
      <point x="20" y="58" type="line"/>
      <point x="39" y="0" type="line"/>
      <point x="79" y="0" type="line"/>
      <point x="56" y="-108" type="line" smooth="yes"/>
      <point x="53" y="-121"/>
      <point x="60" y="-130"/>
    </contour>
  </outline>
</glyph>
<glyph name="dieresiscomb.case" format="2">
  <anchor x="149" y="700" name="_top"/>
  <anchor x="177" y="833" name="top"/>
  <outline>
    <contour>
      <point x="231" y="750" type="curve" smooth="yes"/>
      <point x="269" y="750" type="line" smooth="yes"/>
      <point x="282" y="750"/>
      <point x="294" y="759"/>
      <point x="297" y="772" type="curve" smooth="yes"/>
      <point x="305" y="810" type="line" smooth="yes"/>
      <point x="308" y="823"/>
      <point x="300" y="833"/>
      <point x="287" y="833" type="curve" smooth="yes"/>
      <point x="249" y="833" type="line" smooth="yes"/>
      <point x="236" y="833"/>
      <point x="225" y="823"/>
      <point x="222" y="810" type="curve" smooth="yes"/>
      <point x="214" y="772" type="line" smooth="yes"/>
      <point x="211" y="759"/>
      <point x="218" y="750"/>
    </contour>
    <contour>
      <point x="48" y="750" type="curve" smooth="yes"/>
      <point x="86" y="750" type="line" smooth="yes"/>
      <point x="99" y="750"/>
      <point x="111" y="759"/>
      <point x="114" y="772" type="curve" smooth="yes"/>
      <point x="122" y="810" type="line" smooth="yes"/>
      <point x="125" y="823"/>
      <point x="117" y="833"/>
      <point x="104" y="833" type="curve" smooth="yes"/>
      <point x="66" y="833" type="line" smooth="yes"/>
      <point x="53" y="833"/>
      <point x="42" y="823"/>
      <point x="39" y="810" type="curve" smooth="yes"/>
      <point x="31" y="772" type="line" smooth="yes"/>
      <point x="28" y="759"/>
      <point x="35" y="750"/>
    </contour>
  </outline>
</glyph>
<glyph name="guillemetright.case" format="2">
  <advance width="615"/>
  <guideline x="-150" y="329" angle="0"/>
  <guideline x="499"/>
  <outline>
    <contour>
      <point x="304" y="92" type="curve" smooth="yes"/>
      <point x="312" y="92"/>
      <point x="321" y="97"/>
      <point x="330" y="104" type="curve" smooth="yes"/>
      <point x="557" y="286" type="line" smooth="yes"/>
      <point x="573" y="299"/>
      <point x="578" y="310"/>
      <point x="581" y="321" type="curve"/>
      <point x="585" y="337" type="line"/>
      <point x="586" y="348"/>
      <point x="586" y="359"/>
      <point x="575" y="372" type="curve" smooth="yes"/>
      <point x="426" y="554" type="line" smooth="yes"/>
      <point x="419" y="561"/>
      <point x="413" y="566"/>
      <point x="405" y="566" type="curve" smooth="yes"/>
      <point x="393" y="566"/>
      <point x="383" y="558"/>
      <point x="380" y="546" type="curve" smooth="yes"/>
      <point x="377" y="529" type="line" smooth="yes"/>
      <point x="373" y="513"/>
      <point x="377" y="506"/>
      <point x="387" y="493" type="curve" smooth="yes"/>
      <point x="521" y="329" type="line"/>
      <point x="317" y="165" type="line" smooth="yes"/>
      <point x="302" y="152"/>
      <point x="295" y="145"/>
      <point x="292" y="129" type="curve" smooth="yes"/>
      <point x="288" y="112" type="line" smooth="yes"/>
      <point x="285" y="100"/>
      <point x="292" y="92"/>
    </contour>
    <contour>
      <point x="55" y="92" type="curve" smooth="yes"/>
      <point x="63" y="92"/>
      <point x="72" y="97"/>
      <point x="81" y="104" type="curve" smooth="yes"/>
      <point x="308" y="286" type="line" smooth="yes"/>
      <point x="324" y="299"/>
      <point x="329" y="310"/>
      <point x="332" y="321" type="curve"/>
      <point x="336" y="337" type="line"/>
      <point x="337" y="348"/>
      <point x="337" y="359"/>
      <point x="326" y="372" type="curve" smooth="yes"/>
      <point x="177" y="554" type="line" smooth="yes"/>
      <point x="170" y="561"/>
      <point x="164" y="566"/>
      <point x="156" y="566" type="curve" smooth="yes"/>
      <point x="144" y="566"/>
      <point x="134" y="558"/>
      <point x="131" y="546" type="curve" smooth="yes"/>
      <point x="128" y="529" type="line" smooth="yes"/>
      <point x="124" y="513"/>
      <point x="128" y="506"/>
      <point x="138" y="493" type="curve" smooth="yes"/>
      <point x="272" y="329" type="line"/>
      <point x="68" y="165" type="line" smooth="yes"/>
      <point x="53" y="152"/>
      <point x="46" y="145"/>
      <point x="43" y="129" type="curve" smooth="yes"/>
      <point x="39" y="112" type="line" smooth="yes"/>
      <point x="36" y="100"/>
      <point x="43" y="92"/>
    </contour>
  </outline>
</glyph>
<glyph name="hungarumlautcomb.case" format="2">
  <anchor x="120" y="700" name="_top"/>
  <anchor x="198" y="880" name="top"/>
  <outline>
    <contour>
      <point x="192" y="750" type="curve" smooth="yes"/>
      <point x="207" y="750" type="line" smooth="yes"/>
      <point x="220" y="750"/>
      <point x="230" y="755"/>
      <point x="240" y="764" type="curve" smooth="yes"/>
      <point x="331" y="850" type="line" smooth="yes"/>
      <point x="336" y="855"/>
      <point x="338" y="861"/>
      <point x="338" y="866" type="curve" smooth="yes"/>
      <point x="338" y="874"/>
      <point x="333" y="880"/>
      <point x="322" y="880" type="curve" smooth="yes"/>
      <point x="282" y="880" type="line" smooth="yes"/>
      <point x="261" y="880"/>
      <point x="249" y="874"/>
      <point x="241" y="861" type="curve" smooth="yes"/>
      <point x="183" y="774" type="line" smooth="yes"/>
      <point x="180" y="770"/>
      <point x="178" y="765"/>
      <point x="178" y="761" type="curve" smooth="yes"/>
      <point x="178" y="755"/>
      <point x="182" y="750"/>
    </contour>
    <contour>
      <point x="44" y="750" type="curve" smooth="yes"/>
      <point x="59" y="750" type="line" smooth="yes"/>
      <point x="72" y="750"/>
      <point x="82" y="755"/>
      <point x="92" y="764" type="curve" smooth="yes"/>
      <point x="183" y="850" type="line" smooth="yes"/>
      <point x="188" y="855"/>
      <point x="190" y="861"/>
      <point x="190" y="866" type="curve" smooth="yes"/>
      <point x="190" y="874"/>
      <point x="185" y="880"/>
      <point x="174" y="880" type="curve" smooth="yes"/>
      <point x="134" y="880" type="line" smooth="yes"/>
      <point x="113" y="880"/>
      <point x="101" y="874"/>
      <point x="93" y="861" type="curve" smooth="yes"/>
      <point x="35" y="774" type="line" smooth="yes"/>
      <point x="32" y="770"/>
      <point x="30" y="765"/>
      <point x="30" y="761" type="curve" smooth="yes"/>
      <point x="30" y="755"/>
      <point x="34" y="750"/>
    </contour>
  </outline>
</glyph>
<glyph name="nine.otlf" format="2">
  <advance width="600"/>
  <outline>
    <contour>
      <point x="166" y="0" type="curve" smooth="yes"/>
      <point x="186" y="0" type="line" smooth="yes"/>
      <point x="204" y="0"/>
      <point x="214" y="13"/>
      <point x="221" y="20" type="curve"/>
      <point x="489" y="311" type="line" smooth="yes"/>
      <point x="519" y="344"/>
      <point x="567" y="400"/>
      <point x="584" y="479" type="curve" smooth="yes"/>
      <point x="608" y="590"/>
      <point x="555" y="710"/>
      <point x="395" y="710" type="curve" smooth="yes"/>
      <point x="235" y="710"/>
      <point x="133" y="590"/>
      <point x="109" y="479" type="curve" smooth="yes"/>
      <point x="85" y="368"/>
      <point x="137" y="249"/>
      <point x="297" y="249" type="curve" smooth="yes"/>
      <point x="319" y="249"/>
      <point x="344" y="252"/>
      <point x="364" y="257" type="curve"/>
      <point x="159" y="35" type="line" smooth="yes"/>
      <point x="156" y="32"/>
      <point x="152" y="28"/>
      <point x="151" y="22" type="curve" smooth="yes"/>
      <point x="148" y="10"/>
      <point x="154" y="0"/>
    </contour>
    <contour>
      <point x="310" y="309" type="curve" smooth="yes"/>
      <point x="216" y="309"/>
      <point x="150" y="375"/>
      <point x="172" y="479" type="curve" smooth="yes"/>
      <point x="194" y="584"/>
      <point x="288" y="650"/>
      <point x="382" y="650" type="curve" smooth="yes"/>
      <point x="476" y="650"/>
      <point x="543" y="584"/>
      <point x="521" y="479" type="curve" smooth="yes"/>
      <point x="499" y="375"/>
      <point x="404" y="309"/>
    </contour>
  </outline>
</glyph>
